<?xml version="1.0" encoding="UTF-8"?>
<svg xmlns="http://www.w3.org/2000/svg" width="1180" height="150" viewBox="0 0 1180 150" role="img" aria-label="Decorative aurora wave header with slowly moving colour gradient and layered waves">
<title>Decorative aurora wave header with slowly moving colour gradient and layered waves</title>
<desc>Animated header band for the GitHub profile of Lughx.</desc>
<style>text{font-family:ui-monospace,SFMono-Regular,Menlo,Monaco,Consolas,monospace}.h{font-size:11px;font-weight:600;letter-spacing:3px;fill:#475569}.l{font-size:13px;fill:#0E7490}.t{fill:#0F172A}.m{font-size:13px;fill:#475569}</style>
<defs><linearGradient id="acc" x1="0" y1="0" x2="1" y2="0"><stop offset="0" stop-color="#2563EB"/><stop offset=".5" stop-color="#06B6D4"/><stop offset="1" stop-color="#10B981"/></linearGradient><linearGradient id="fade" x1="0" y1="0" x2="1" y2="0"><stop offset="0" stop-color="#06B6D4" stop-opacity=".8"/><stop offset="1" stop-color="#06B6D4" stop-opacity="0"/></linearGradient><linearGradient id="ship" x1="0" y1="0" x2="0" y2="1"><stop offset="0" stop-color="#3B82F6"/><stop offset="1" stop-color="#1D4ED8"/></linearGradient><linearGradient id="aur" gradientUnits="userSpaceOnUse" x1="0" y1="0" x2="1180" y2="0" spreadMethod="reflect"><stop offset="0" stop-color="#2563EB"/><stop offset=".5" stop-color="#06B6D4"/><stop offset="1" stop-color="#10B981"/><animateTransform attributeName="gradientTransform" type="translate" values="0 0;2360 0" dur="36s" repeatCount="indefinite"/></linearGradient><linearGradient id="tf" x1="0" y1="0" x2="0" y2="1"><stop offset="0" stop-color="#FFFFFF" stop-opacity="1"/><stop offset=".55" stop-color="#FFFFFF" stop-opacity="0"/></linearGradient></defs>
<rect width="1180" height="150" fill="url(#aur)" opacity="0.5"/><rect width="1180" height="150" fill="url(#tf)"/><circle cx="640" cy="60" r="1.8" fill="#FFFFFF" opacity="0"><animateTransform attributeName="transform" type="translate" values="0 0;0 -26" keyTimes="0;1" dur="7.42779s" repeatCount="indefinite"/><animate attributeName="opacity" begin="-3.5s" values="0;0.7;0" keyTimes="0;0.3;1" dur="7.42779s" repeatCount="indefinite"/></circle><circle cx="710" cy="103" r="1.4" fill="#FFFFFF" opacity="0"><animateTransform attributeName="transform" type="translate" values="0 0;0 -26" keyTimes="0;1" dur="9.48511s" repeatCount="indefinite"/><animate attributeName="opacity" begin="-2.5s" values="0;0.7;0" keyTimes="0;0.3;1" dur="9.48511s" repeatCount="indefinite"/></circle><circle cx="1155" cy="68" r="1.8" fill="#FFFFFF" opacity="0"><animateTransform attributeName="transform" type="translate" values="0 0;0 -26" keyTimes="0;1" dur="7.40599s" repeatCount="indefinite"/><animate attributeName="opacity" begin="-3.5s" values="0;0.7;0" keyTimes="0;0.3;1" dur="7.40599s" repeatCount="indefinite"/></circle><circle cx="192" cy="81" r="1.8" fill="#FFFFFF" opacity="0"><animateTransform attributeName="transform" type="translate" values="0 0;0 -26" keyTimes="0;1" dur="9.83441s" repeatCount="indefinite"/><animate attributeName="opacity" begin="-3.8s" values="0;0.7;0" keyTimes="0;0.3;1" dur="9.83441s" repeatCount="indefinite"/></circle><circle cx="906" cy="43" r="1.8" fill="#FFFFFF" opacity="0"><animateTransform attributeName="transform" type="translate" values="0 0;0 -26" keyTimes="0;1" dur="6.09088s" repeatCount="indefinite"/><animate attributeName="opacity" begin="-0.3s" values="0;0.7;0" keyTimes="0;0.3;1" dur="6.09088s" repeatCount="indefinite"/></circle><circle cx="959" cy="52" r="1.8" fill="#FFFFFF" opacity="0"><animateTransform attributeName="transform" type="translate" values="0 0;0 -26" keyTimes="0;1" dur="10.6805s" repeatCount="indefinite"/><animate attributeName="opacity" begin="-7.7s" values="0;0.7;0" keyTimes="0;0.3;1" dur="10.6805s" repeatCount="indefinite"/></circle><circle cx="834" cy="104" r="1.4" fill="#FFFFFF" opacity="0"><animateTransform attributeName="transform" type="translate" values="0 0;0 -26" keyTimes="0;1" dur="11.2729s" repeatCount="indefinite"/><animate attributeName="opacity" begin="-8.2s" values="0;0.7;0" keyTimes="0;0.3;1" dur="11.2729s" repeatCount="indefinite"/></circle><circle cx="1119" cy="41" r="1.4" fill="#FFFFFF" opacity="0"><animateTransform attributeName="transform" type="translate" values="0 0;0 -26" keyTimes="0;1" dur="9.46146s" repeatCount="indefinite"/><animate attributeName="opacity" begin="-0.9s" values="0;0.7;0" keyTimes="0;0.3;1" dur="9.46146s" repeatCount="indefinite"/></circle><circle cx="267" cy="107" r="1.4" fill="#FFFFFF" opacity="0"><animateTransform attributeName="transform" type="translate" values="0 0;0 -26" keyTimes="0;1" dur="6.81581s" repeatCount="indefinite"/><animate attributeName="opacity" begin="-5.3s" values="0;0.7;0" keyTimes="0;0.3;1" dur="6.81581s" repeatCount="indefinite"/></circle><circle cx="500" cy="97" r="1.8" fill="#FFFFFF" opacity="0"><animateTransform attributeName="transform" type="translate" values="0 0;0 -26" keyTimes="0;1" dur="11.1314s" repeatCount="indefinite"/><animate attributeName="opacity" begin="-3.9s" values="0;0.7;0" keyTimes="0;0.3;1" dur="11.1314s" repeatCount="indefinite"/></circle><circle cx="686" cy="102" r="1.8" fill="#FFFFFF" opacity="0"><animateTransform attributeName="transform" type="translate" values="0 0;0 -26" keyTimes="0;1" dur="9.51044s" repeatCount="indefinite"/><animate attributeName="opacity" begin="-8.7s" values="0;0.7;0" keyTimes="0;0.3;1" dur="9.51044s" repeatCount="indefinite"/></circle><circle cx="339" cy="78" r="1.8" fill="#FFFFFF" opacity="0"><animateTransform attributeName="transform" type="translate" values="0 0;0 -26" keyTimes="0;1" dur="6.17196s" repeatCount="indefinite"/><animate attributeName="opacity" begin="-1.0s" values="0;0.7;0" keyTimes="0;0.3;1" dur="6.17196s" repeatCount="indefinite"/></circle><circle cx="1120" cy="102" r="1.8" fill="#FFFFFF" opacity="0"><animateTransform attributeName="transform" type="translate" values="0 0;0 -26" keyTimes="0;1" dur="11.1638s" repeatCount="indefinite"/><animate attributeName="opacity" begin="-1.2s" values="0;0.7;0" keyTimes="0;0.3;1" dur="11.1638s" repeatCount="indefinite"/></circle><circle cx="742" cy="109" r="1.4" fill="#FFFFFF" opacity="0"><animateTransform attributeName="transform" type="translate" values="0 0;0 -26" keyTimes="0;1" dur="9.93307s" repeatCount="indefinite"/><animate attributeName="opacity" begin="-2.8s" values="0;0.7;0" keyTimes="0;0.3;1" dur="9.93307s" repeatCount="indefinite"/></circle><path d="M-590,88.0 L-580,89.7 L-570,91.4 L-560,93.0 L-550,94.6 L-540,96.1 L-530,97.5 L-520,98.9 L-510,100.0 L-500,101.1 L-490,102.0 L-480,102.7 L-470,103.3 L-460,103.7 L-450,103.9 L-440,104.0 L-430,103.9 L-420,103.5 L-410,103.1 L-400,102.4 L-390,101.6 L-380,100.6 L-370,99.5 L-360,98.2 L-350,96.8 L-340,95.4 L-330,93.8 L-320,92.2 L-310,90.5 L-300,88.9 L-290,87.1 L-280,85.5 L-270,83.8 L-260,82.2 L-250,80.6 L-240,79.2 L-230,77.8 L-220,76.5 L-210,75.4 L-200,74.4 L-190,73.6 L-180,72.9 L-170,72.5 L-160,72.1 L-150,72.0 L-140,72.1 L-130,72.3 L-120,72.7 L-110,73.3 L-100,74.0 L-90,74.9 L-80,76.0 L-70,77.1 L-60,78.5 L-50,79.9 L-40,81.4 L-30,83.0 L-20,84.6 L-10,86.3 L0,88.0 L10,89.7 L20,91.4 L30,93.0 L40,94.6 L50,96.1 L60,97.5 L70,98.9 L80,100.0 L90,101.1 L100,102.0 L110,102.7 L120,103.3 L130,103.7 L140,103.9 L150,104.0 L160,103.9 L170,103.5 L180,103.1 L190,102.4 L200,101.6 L210,100.6 L220,99.5 L230,98.2 L240,96.8 L250,95.4 L260,93.8 L270,92.2 L280,90.5 L290,88.9 L300,87.1 L310,85.5 L320,83.8 L330,82.2 L340,80.6 L350,79.2 L360,77.8 L370,76.5 L380,75.4 L390,74.4 L400,73.6 L410,72.9 L420,72.5 L430,72.1 L440,72.0 L450,72.1 L460,72.3 L470,72.7 L480,73.3 L490,74.0 L500,74.9 L510,76.0 L520,77.1 L530,78.5 L540,79.9 L550,81.4 L560,83.0 L570,84.6 L580,86.3 L590,88.0 L600,89.7 L610,91.4 L620,93.0 L630,94.6 L640,96.1 L650,97.5 L660,98.9 L670,100.0 L680,101.1 L690,102.0 L700,102.7 L710,103.3 L720,103.7 L730,103.9 L740,104.0 L750,103.9 L760,103.5 L770,103.1 L780,102.4 L790,101.6 L800,100.6 L810,99.5 L820,98.2 L830,96.8 L840,95.4 L850,93.8 L860,92.2 L870,90.5 L880,88.9 L890,87.1 L900,85.5 L910,83.8 L920,82.2 L930,80.6 L940,79.2 L950,77.8 L960,76.5 L970,75.4 L980,74.4 L990,73.6 L1000,72.9 L1010,72.5 L1020,72.1 L1030,72.0 L1040,72.1 L1050,72.3 L1060,72.7 L1070,73.3 L1080,74.0 L1090,74.9 L1100,76.0 L1110,77.1 L1120,78.5 L1130,79.9 L1140,81.4 L1150,83.0 L1160,84.6 L1170,86.3 L1180,88.0 L1190,89.7 L1200,91.4 L1210,93.0 L1220,94.6 L1230,96.1 L1240,97.5 L1250,98.9 L1260,100.0 L1270,101.1 L1280,102.0 L1290,102.7 L1300,103.3 L1310,103.7 L1320,103.9 L1330,104.0 L1340,103.9 L1350,103.5 L1360,103.1 L1370,102.4 L1380,101.6 L1390,100.6 L1400,99.5 L1410,98.2 L1420,96.8 L1430,95.4 L1440,93.8 L1450,92.2 L1460,90.5 L1470,88.9 L1480,87.1 L1490,85.5 L1500,83.8 L1510,82.2 L1520,80.6 L1530,79.2 L1540,77.8 L1550,76.5 L1560,75.4 L1570,74.4 L1580,73.6 L1590,72.9 L1600,72.5 L1610,72.1 L1620,72.0 L1630,72.1 L1640,72.3 L1650,72.7 L1660,73.3 L1670,74.0 L1680,74.9 L1690,76.0 L1700,77.1 L1710,78.5 L1720,79.9 L1730,81.4 L1740,83.0 L1750,84.6 L1760,86.3 L1770,88.0 L1770,150 L-590,150 Z" fill="#FFFFFF" fill-opacity="0.35"><animateTransform attributeName="transform" type="translate" values="0 0;-590 0" keyTimes="0;1" dur="24s" repeatCount="indefinite"/></path><path d="M-400,117.0 L-390,116.8 L-380,116.2 L-370,115.4 L-360,114.3 L-350,112.9 L-340,111.3 L-330,109.6 L-320,107.7 L-310,105.7 L-300,103.6 L-290,101.6 L-280,99.6 L-270,97.8 L-260,96.1 L-250,94.5 L-240,93.3 L-230,92.2 L-220,91.5 L-210,91.1 L-200,91.0 L-190,91.2 L-180,91.8 L-170,92.6 L-160,93.7 L-150,95.1 L-140,96.7 L-130,98.4 L-120,100.3 L-110,102.3 L-100,104.4 L-90,106.4 L-80,108.4 L-70,110.2 L-60,111.9 L-50,113.5 L-40,114.7 L-30,115.8 L-20,116.5 L-10,116.9 L0,117.0 L10,116.8 L20,116.2 L30,115.4 L40,114.3 L50,112.9 L60,111.3 L70,109.6 L80,107.7 L90,105.7 L100,103.6 L110,101.6 L120,99.6 L130,97.8 L140,96.1 L150,94.5 L160,93.3 L170,92.2 L180,91.5 L190,91.1 L200,91.0 L210,91.2 L220,91.8 L230,92.6 L240,93.7 L250,95.1 L260,96.7 L270,98.4 L280,100.3 L290,102.3 L300,104.4 L310,106.4 L320,108.4 L330,110.2 L340,111.9 L350,113.5 L360,114.7 L370,115.8 L380,116.5 L390,116.9 L400,117.0 L410,116.8 L420,116.2 L430,115.4 L440,114.3 L450,112.9 L460,111.3 L470,109.6 L480,107.7 L490,105.7 L500,103.6 L510,101.6 L520,99.6 L530,97.8 L540,96.1 L550,94.5 L560,93.3 L570,92.2 L580,91.5 L590,91.1 L600,91.0 L610,91.2 L620,91.8 L630,92.6 L640,93.7 L650,95.1 L660,96.7 L670,98.4 L680,100.3 L690,102.3 L700,104.4 L710,106.4 L720,108.4 L730,110.2 L740,111.9 L750,113.5 L760,114.7 L770,115.8 L780,116.5 L790,116.9 L800,117.0 L810,116.8 L820,116.2 L830,115.4 L840,114.3 L850,112.9 L860,111.3 L870,109.6 L880,107.7 L890,105.7 L900,103.6 L910,101.6 L920,99.6 L930,97.8 L940,96.1 L950,94.5 L960,93.3 L970,92.2 L980,91.5 L990,91.1 L1000,91.0 L1010,91.2 L1020,91.8 L1030,92.6 L1040,93.7 L1050,95.1 L1060,96.7 L1070,98.4 L1080,100.3 L1090,102.3 L1100,104.4 L1110,106.4 L1120,108.4 L1130,110.2 L1140,111.9 L1150,113.5 L1160,114.7 L1170,115.8 L1180,116.5 L1190,116.9 L1200,117.0 L1210,116.8 L1220,116.2 L1230,115.4 L1240,114.3 L1250,112.9 L1260,111.3 L1270,109.6 L1280,107.7 L1290,105.7 L1300,103.6 L1310,101.6 L1320,99.6 L1330,97.8 L1340,96.1 L1350,94.5 L1360,93.3 L1370,92.2 L1380,91.5 L1390,91.1 L1400,91.0 L1410,91.2 L1420,91.8 L1430,92.6 L1440,93.7 L1450,95.1 L1460,96.7 L1470,98.4 L1480,100.3 L1490,102.3 L1500,104.4 L1510,106.4 L1520,108.4 L1530,110.2 L1540,111.9 L1550,113.5 L1560,114.7 L1570,115.8 L1580,116.5 L1580,150 L-400,150 Z" fill="#FFFFFF" fill-opacity="0.6"><animateTransform attributeName="transform" type="translate" values="-400 0;0 0" keyTimes="0;1" dur="18s" repeatCount="indefinite"/></path><path d="M-300,121.4 L-290,119.3 L-280,117.3 L-270,115.5 L-260,113.9 L-250,112.6 L-240,111.6 L-230,111.1 L-220,111.0 L-210,111.4 L-200,112.1 L-190,113.3 L-180,114.8 L-170,116.6 L-160,118.5 L-150,120.6 L-140,122.7 L-130,124.7 L-120,126.5 L-110,128.1 L-100,129.4 L-90,130.4 L-80,130.9 L-70,131.0 L-60,130.6 L-50,129.9 L-40,128.7 L-30,127.2 L-20,125.4 L-10,123.5 L0,121.4 L10,119.3 L20,117.3 L30,115.5 L40,113.9 L50,112.6 L60,111.6 L70,111.1 L80,111.0 L90,111.4 L100,112.1 L110,113.3 L120,114.8 L130,116.6 L140,118.5 L150,120.6 L160,122.7 L170,124.7 L180,126.5 L190,128.1 L200,129.4 L210,130.4 L220,130.9 L230,131.0 L240,130.6 L250,129.9 L260,128.7 L270,127.2 L280,125.4 L290,123.5 L300,121.4 L310,119.3 L320,117.3 L330,115.5 L340,113.9 L350,112.6 L360,111.6 L370,111.1 L380,111.0 L390,111.4 L400,112.1 L410,113.3 L420,114.8 L430,116.6 L440,118.5 L450,120.6 L460,122.7 L470,124.7 L480,126.5 L490,128.1 L500,129.4 L510,130.4 L520,130.9 L530,131.0 L540,130.6 L550,129.9 L560,128.7 L570,127.2 L580,125.4 L590,123.5 L600,121.4 L610,119.3 L620,117.3 L630,115.5 L640,113.9 L650,112.6 L660,111.6 L670,111.1 L680,111.0 L690,111.4 L700,112.1 L710,113.3 L720,114.8 L730,116.6 L740,118.5 L750,120.6 L760,122.7 L770,124.7 L780,126.5 L790,128.1 L800,129.4 L810,130.4 L820,130.9 L830,131.0 L840,130.6 L850,129.9 L860,128.7 L870,127.2 L880,125.4 L890,123.5 L900,121.4 L910,119.3 L920,117.3 L930,115.5 L940,113.9 L950,112.6 L960,111.6 L970,111.1 L980,111.0 L990,111.4 L1000,112.1 L1010,113.3 L1020,114.8 L1030,116.6 L1040,118.5 L1050,120.6 L1060,122.7 L1070,124.7 L1080,126.5 L1090,128.1 L1100,129.4 L1110,130.4 L1120,130.9 L1130,131.0 L1140,130.6 L1150,129.9 L1160,128.7 L1170,127.2 L1180,125.4 L1190,123.5 L1200,121.4 L1210,119.3 L1220,117.3 L1230,115.5 L1240,113.9 L1250,112.6 L1260,111.6 L1270,111.1 L1280,111.0 L1290,111.4 L1300,112.1 L1310,113.3 L1320,114.8 L1330,116.6 L1340,118.5 L1350,120.6 L1360,122.7 L1370,124.7 L1380,126.5 L1390,128.1 L1400,129.4 L1410,130.4 L1420,130.9 L1430,131.0 L1440,130.6 L1450,129.9 L1460,128.7 L1470,127.2 L1480,125.4 L1480,150 L-300,150 Z" fill="#FFFFFF" fill-opacity="1"><animateTransform attributeName="transform" type="translate" values="0 0;-300 0" keyTimes="0;1" dur="13s" repeatCount="indefinite"/></path>
</svg>
